<svg width="271" height="38.4" viewBox="0 0 271 38.4" xmlns="http://www.w3.org/2000/svg"><g id="svgGroup" stroke-linecap="round" fill-rule="evenodd" font-size="9pt" stroke="#d8bfd8" stroke-width="0.25mm" fill="#d8bfd8" style="stroke:#d8bfd8;stroke-width:0.25mm;fill:#d8bfd8"><path d="M 140.48 16.24 L 140.48 29.2 L 136.84 29.2 L 136.84 16.64 A 7.885 7.885 0 0 0 136.644 14.798 Q 136.05 12.333 133.651 11.868 A 6.374 6.374 0 0 0 132.44 11.76 A 6.682 6.682 0 0 0 128.855 12.844 Q 127.85 13.471 126.883 14.462 A 15.605 15.605 0 0 0 125.88 15.6 L 125.88 29.2 L 122.24 29.2 L 122.24 0 L 125.88 0 L 125.88 11.96 L 126 11.96 A 12.379 12.379 0 0 1 128.437 9.861 A 8.854 8.854 0 0 1 133.32 8.4 A 7.939 7.939 0 0 1 135.613 8.715 A 6.134 6.134 0 0 1 138.56 10.64 Q 140.48 12.88 140.48 16.24 Z M 190.08 16.24 L 190.08 29.2 L 186.44 29.2 L 186.44 16.64 A 7.885 7.885 0 0 0 186.244 14.798 Q 185.65 12.333 183.251 11.868 A 6.374 6.374 0 0 0 182.04 11.76 A 6.682 6.682 0 0 0 178.455 12.844 Q 177.45 13.471 176.483 14.462 A 15.605 15.605 0 0 0 175.48 15.6 L 175.48 29.2 L 171.84 29.2 L 171.84 0 L 175.48 0 L 175.48 11.96 L 175.6 11.96 A 12.379 12.379 0 0 1 178.037 9.861 A 8.854 8.854 0 0 1 182.92 8.4 A 7.939 7.939 0 0 1 185.213 8.715 A 6.134 6.134 0 0 1 188.16 10.64 Q 190.08 12.88 190.08 16.24 Z M 233.04 27.8 L 233.04 24.32 L 233.24 24.32 Q 236.48 26.24 240.36 26.24 Q 243.44 26.24 244.384 24.873 A 2.53 2.53 0 0 0 244.8 23.4 A 1.307 1.307 0 0 0 244.408 22.473 Q 244.222 22.278 243.948 22.108 A 3.739 3.739 0 0 0 243.56 21.9 A 11.802 11.802 0 0 0 242.375 21.427 Q 241.756 21.215 241.045 21.036 A 21.209 21.209 0 0 0 240.56 20.92 Q 238.8 20.52 237.04 19.96 Q 235.28 19.4 234.04 18.08 A 4.527 4.527 0 0 1 232.84 15.43 A 6.127 6.127 0 0 1 232.8 14.72 Q 232.8 11.92 234.82 10.16 A 6.802 6.802 0 0 1 237.554 8.737 Q 238.564 8.463 239.759 8.412 A 13.073 13.073 0 0 1 240.32 8.4 Q 243.8 8.4 246.8 9.52 L 246.8 12.84 L 246.52 12.84 A 14.795 14.795 0 0 0 243.543 11.934 A 12.255 12.255 0 0 0 241.28 11.72 Q 238.993 11.72 237.776 12.342 A 3.299 3.299 0 0 0 237.5 12.5 A 3.297 3.297 0 0 0 236.87 13.012 A 2.05 2.05 0 0 0 236.28 14.46 A 1.834 1.834 0 0 0 237.005 15.949 A 3.013 3.013 0 0 0 237.52 16.28 A 9.67 9.67 0 0 0 238.708 16.79 Q 239.331 17.012 240.05 17.188 A 17.084 17.084 0 0 0 240.54 17.3 Q 242.32 17.68 244.08 18.24 Q 245.84 18.8 247.08 20.16 Q 248.32 21.52 248.32 23.88 Q 248.32 26.24 246.3 27.92 A 6.411 6.411 0 0 1 244.247 29.038 Q 243.321 29.354 242.188 29.493 A 15.624 15.624 0 0 1 240.3 29.6 A 15.245 15.245 0 0 1 234.94 28.67 A 14.341 14.341 0 0 1 233.04 27.8 Z M 150.36 26.64 L 150.24 26.64 L 150.24 38.4 L 146.6 38.4 L 146.6 8.8 L 149.8 8.8 L 150.24 11.36 L 150.36 11.36 A 9.835 9.835 0 0 1 153.251 9.235 A 8.847 8.847 0 0 1 157.08 8.4 A 9.296 9.296 0 0 1 163.766 11.188 A 12.122 12.122 0 0 1 163.86 11.28 Q 166.76 14.16 166.76 19 A 13.072 13.072 0 0 1 166.352 22.354 A 9.437 9.437 0 0 1 163.86 26.72 A 10.047 10.047 0 0 1 160.768 28.857 A 9.191 9.191 0 0 1 157.08 29.6 A 8.959 8.959 0 0 1 150.544 26.828 A 11.823 11.823 0 0 1 150.36 26.64 Z M 271 19 L 271 20.28 L 255.56 20.28 A 8.231 8.231 0 0 0 256.023 22.26 A 5.917 5.917 0 0 0 257.64 24.64 A 5.477 5.477 0 0 0 259.489 25.693 Q 260.304 25.978 261.307 26.103 A 13.566 13.566 0 0 0 262.98 26.2 Q 266.56 26.2 269.6 24.2 L 269.8 24.2 L 269.8 27.72 A 14.574 14.574 0 0 1 264.946 29.368 A 19.246 19.246 0 0 1 261.9 29.6 A 12.028 12.028 0 0 1 258.688 29.193 A 8.956 8.956 0 0 1 254.62 26.82 Q 251.88 24.04 251.88 19.3 A 15.133 15.133 0 0 1 252.267 15.786 A 10.909 10.909 0 0 1 254.32 11.48 Q 256.76 8.4 261.44 8.4 Q 266.12 8.4 268.56 11.48 A 11.228 11.228 0 0 1 270.895 17.22 A 14.756 14.756 0 0 1 271 19 Z M 63.6 13.2 L 63.6 9.92 Q 67.08 8.4 71.06 8.4 A 10.942 10.942 0 0 1 73.472 8.65 Q 75.152 9.029 76.37 9.986 A 6.548 6.548 0 0 1 77.16 10.72 Q 79.28 13.04 79.28 16.28 L 79.28 29.2 L 76.08 29.2 L 75.64 26.64 L 75.52 26.64 Q 72.64 29.6 68.12 29.6 A 7.485 7.485 0 0 1 65.641 29.203 A 6.552 6.552 0 0 1 63.5 27.96 A 5.376 5.376 0 0 1 61.656 24.421 A 7.644 7.644 0 0 1 61.6 23.48 A 5.411 5.411 0 0 1 63.392 19.337 A 7.009 7.009 0 0 1 63.94 18.88 Q 66.28 17.12 70.8 17.12 L 75.64 17.12 L 75.64 16.8 A 8.453 8.453 0 0 0 75.537 15.432 Q 75.274 13.834 74.34 13 A 3.653 3.653 0 0 0 73.222 12.34 Q 71.94 11.84 69.84 11.84 Q 66.64 11.84 63.84 13.2 L 63.6 13.2 Z M 212.04 13.2 L 212.04 9.92 Q 215.52 8.4 219.5 8.4 A 10.942 10.942 0 0 1 221.912 8.65 Q 223.592 9.029 224.81 9.986 A 6.548 6.548 0 0 1 225.6 10.72 Q 227.72 13.04 227.72 16.28 L 227.72 29.2 L 224.52 29.2 L 224.08 26.64 L 223.96 26.64 Q 221.08 29.6 216.56 29.6 A 7.485 7.485 0 0 1 214.081 29.203 A 6.552 6.552 0 0 1 211.94 27.96 A 5.376 5.376 0 0 1 210.096 24.421 A 7.644 7.644 0 0 1 210.04 23.48 A 5.411 5.411 0 0 1 211.832 19.337 A 7.009 7.009 0 0 1 212.38 18.88 Q 214.72 17.12 219.24 17.12 L 224.08 17.12 L 224.08 16.8 A 8.453 8.453 0 0 0 223.977 15.432 Q 223.714 13.834 222.78 13 A 3.653 3.653 0 0 0 221.662 12.34 Q 220.38 11.84 218.28 11.84 Q 215.08 11.84 212.28 13.2 L 212.04 13.2 Z M 58.08 13.8 L 57.92 13.8 Q 54.96 11.8 51.5 11.8 A 9.725 9.725 0 0 0 49.253 12.045 A 6.455 6.455 0 0 0 46.08 13.78 A 6.665 6.665 0 0 0 44.231 17.527 A 9.381 9.381 0 0 0 44.12 19 A 8.691 8.691 0 0 0 44.419 21.339 A 6.506 6.506 0 0 0 46.08 24.22 A 6.462 6.462 0 0 0 49.276 25.961 A 9.747 9.747 0 0 0 51.5 26.2 Q 54.96 26.2 57.92 24.2 L 58.08 24.2 L 58.08 27.64 Q 54.76 29.6 51.16 29.6 Q 46.72 29.6 43.6 26.72 A 9.54 9.54 0 0 1 40.59 20.746 A 13.459 13.459 0 0 1 40.48 19 A 12.132 12.132 0 0 1 40.947 15.55 A 9.291 9.291 0 0 1 43.6 11.28 Q 46.72 8.4 51.16 8.4 A 13.284 13.284 0 0 1 57.56 10.066 A 15.883 15.883 0 0 1 58.08 10.36 L 58.08 13.8 Z M 117.08 13.8 L 116.92 13.8 Q 113.96 11.8 110.5 11.8 A 9.725 9.725 0 0 0 108.253 12.045 A 6.455 6.455 0 0 0 105.08 13.78 A 6.665 6.665 0 0 0 103.231 17.527 A 9.381 9.381 0 0 0 103.12 19 A 8.691 8.691 0 0 0 103.419 21.339 A 6.506 6.506 0 0 0 105.08 24.22 A 6.462 6.462 0 0 0 108.276 25.961 A 9.747 9.747 0 0 0 110.5 26.2 Q 113.96 26.2 116.92 24.2 L 117.08 24.2 L 117.08 27.64 Q 113.76 29.6 110.16 29.6 Q 105.72 29.6 102.6 26.72 A 9.54 9.54 0 0 1 99.59 20.746 A 13.459 13.459 0 0 1 99.48 19 A 12.132 12.132 0 0 1 99.947 15.55 A 9.291 9.291 0 0 1 102.6 11.28 Q 105.72 8.4 110.16 8.4 A 13.284 13.284 0 0 1 116.56 10.066 A 15.883 15.883 0 0 1 117.08 10.36 L 117.08 13.8 Z M 96.2 8.8 L 96.2 11.92 L 90.4 11.92 L 90.4 24 A 4.71 4.71 0 0 0 90.447 24.696 Q 90.575 25.545 91.045 25.916 A 1.238 1.238 0 0 0 91.32 26.08 A 3.628 3.628 0 0 0 92.003 26.286 Q 92.344 26.355 92.744 26.383 A 7.904 7.904 0 0 0 93.28 26.4 Q 94.341 26.4 95.589 25.9 A 9.664 9.664 0 0 0 95.92 25.76 L 96.2 25.76 L 96.2 28.72 Q 94.52 29.6 92.6 29.6 A 9.412 9.412 0 0 1 90.396 29.365 Q 86.76 28.486 86.76 24.32 L 86.76 11.92 L 82.96 11.92 L 82.96 11.68 L 90.4 4.4 L 90.4 8.8 L 96.2 8.8 Z M 207.44 8.4 L 207.76 8.4 L 207.76 11.88 L 207.44 11.88 A 10.626 10.626 0 0 0 203.328 12.675 A 10.286 10.286 0 0 0 203.04 12.8 A 8.374 8.374 0 0 0 201.072 14.022 A 7.128 7.128 0 0 0 199.84 15.36 L 199.84 29.2 L 196.2 29.2 L 196.2 8.8 L 199.4 8.8 L 199.84 11.36 L 199.84 11.96 L 199.92 11.96 A 9.128 9.128 0 0 1 206.551 8.434 A 11.464 11.464 0 0 1 207.44 8.4 Z M 150.24 14.8 L 150.24 23.2 A 9.944 9.944 0 0 0 152.499 25.086 A 7.782 7.782 0 0 0 156.56 26.2 A 7.571 7.571 0 0 0 158.695 25.913 A 5.848 5.848 0 0 0 161.32 24.32 Q 162.96 22.607 163.106 19.599 A 12.381 12.381 0 0 0 163.12 19 A 10.574 10.574 0 0 0 162.926 16.91 Q 162.672 15.65 162.084 14.679 A 5.723 5.723 0 0 0 161.32 13.68 A 6.005 6.005 0 0 0 157.629 11.866 A 8.385 8.385 0 0 0 156.56 11.8 Q 152.96 11.8 150.24 14.8 Z M 255.56 17.32 L 267.36 17.32 A 7.861 7.861 0 0 0 267.061 15.515 A 5.133 5.133 0 0 0 265.42 12.96 Q 263.64 11.48 261.44 11.48 Q 259.24 11.48 257.48 12.96 Q 255.76 14.407 255.568 17.191 A 9.783 9.783 0 0 0 255.56 17.32 Z M 75.64 23.4 L 75.64 20.04 L 71.28 20.04 A 17.18 17.18 0 0 0 69.247 20.149 Q 67.193 20.396 66.192 21.196 A 2.461 2.461 0 0 0 65.24 23.22 Q 65.24 26.4 69.48 26.4 A 7.231 7.231 0 0 0 72.878 25.541 L 72.88 25.54 A 9.826 9.826 0 0 0 74.929 24.123 A 8.774 8.774 0 0 0 75.64 23.4 Z M 224.08 23.4 L 224.08 20.04 L 219.72 20.04 A 17.18 17.18 0 0 0 217.687 20.149 Q 215.633 20.396 214.632 21.196 A 2.461 2.461 0 0 0 213.68 23.22 Q 213.68 26.4 217.92 26.4 A 7.231 7.231 0 0 0 221.318 25.541 L 221.32 25.54 A 9.826 9.826 0 0 0 223.369 24.123 A 8.774 8.774 0 0 0 224.08 23.4 Z M 4.48 13.28 L 0 13.28 L 0 8.8 L 4.48 8.8 L 4.48 13.28 Z M 25.28 13.28 L 20.8 13.28 L 20.8 8.8 L 25.28 8.8 L 25.28 13.28 Z M 4.48 29.2 L 0 29.2 L 0 24.72 L 4.48 24.72 L 4.48 29.2 Z M 25.28 29.2 L 20.8 29.2 L 20.8 24.72 L 25.28 24.72 L 25.28 29.2 Z" vector-effect="non-scaling-stroke"/></g></svg>