<svg width="191.16" height="38.24" viewBox="0 0 191.16 38.24" xmlns="http://www.w3.org/2000/svg"><g id="svgGroup" stroke-linecap="round" fill-rule="evenodd" font-size="9pt" stroke="#d8bfd8" stroke-width="0.25mm" fill="#d8bfd8" style="stroke:#d8bfd8;stroke-width:0.25mm;fill:#d8bfd8"><path d="M 175.88 27.24 L 175.88 23.76 L 176.08 23.76 Q 179.32 25.68 183.2 25.68 Q 186.28 25.68 187.224 24.313 A 2.53 2.53 0 0 0 187.64 22.84 A 1.307 1.307 0 0 0 187.248 21.913 Q 187.062 21.718 186.788 21.548 A 3.739 3.739 0 0 0 186.4 21.34 A 11.802 11.802 0 0 0 185.215 20.867 Q 184.596 20.655 183.885 20.476 A 21.209 21.209 0 0 0 183.4 20.36 Q 181.64 19.96 179.88 19.4 Q 178.12 18.84 176.88 17.52 A 4.527 4.527 0 0 1 175.68 14.87 A 6.127 6.127 0 0 1 175.64 14.16 Q 175.64 11.36 177.66 9.6 A 6.802 6.802 0 0 1 180.394 8.177 Q 181.404 7.903 182.599 7.852 A 13.073 13.073 0 0 1 183.16 7.84 Q 186.64 7.84 189.64 8.96 L 189.64 12.28 L 189.36 12.28 A 14.795 14.795 0 0 0 186.383 11.374 A 12.255 12.255 0 0 0 184.12 11.16 Q 181.833 11.16 180.616 11.782 A 3.299 3.299 0 0 0 180.34 11.94 A 3.297 3.297 0 0 0 179.71 12.452 A 2.05 2.05 0 0 0 179.12 13.9 A 1.834 1.834 0 0 0 179.845 15.389 A 3.013 3.013 0 0 0 180.36 15.72 A 9.67 9.67 0 0 0 181.548 16.23 Q 182.171 16.452 182.89 16.628 A 17.084 17.084 0 0 0 183.38 16.74 Q 185.16 17.12 186.92 17.68 Q 188.68 18.24 189.92 19.6 Q 191.16 20.96 191.16 23.32 Q 191.16 25.68 189.14 27.36 A 6.411 6.411 0 0 1 187.087 28.478 Q 186.161 28.794 185.028 28.933 A 15.624 15.624 0 0 1 183.14 29.04 A 15.245 15.245 0 0 1 177.78 28.11 A 14.341 14.341 0 0 1 175.88 27.24 Z M 45.56 26.08 L 45.44 26.08 L 45.44 37.84 L 41.8 37.84 L 41.8 8.24 L 45 8.24 L 45.44 10.8 L 45.56 10.8 A 9.835 9.835 0 0 1 48.451 8.675 A 8.847 8.847 0 0 1 52.28 7.84 A 9.296 9.296 0 0 1 58.966 10.628 A 12.122 12.122 0 0 1 59.06 10.72 Q 61.96 13.6 61.96 18.44 A 13.072 13.072 0 0 1 61.552 21.794 A 9.437 9.437 0 0 1 59.06 26.16 A 10.047 10.047 0 0 1 55.968 28.297 A 9.191 9.191 0 0 1 52.28 29.04 A 8.959 8.959 0 0 1 45.744 26.268 A 11.823 11.823 0 0 1 45.56 26.08 Z M 135.04 18.44 L 135.04 19.72 L 119.6 19.72 A 8.231 8.231 0 0 0 120.063 21.7 A 5.917 5.917 0 0 0 121.68 24.08 A 5.477 5.477 0 0 0 123.529 25.133 Q 124.344 25.418 125.347 25.543 A 13.566 13.566 0 0 0 127.02 25.64 Q 130.6 25.64 133.64 23.64 L 133.84 23.64 L 133.84 27.16 A 14.574 14.574 0 0 1 128.986 28.808 A 19.246 19.246 0 0 1 125.94 29.04 A 12.028 12.028 0 0 1 122.728 28.633 A 8.956 8.956 0 0 1 118.66 26.26 Q 115.92 23.48 115.92 18.74 A 15.133 15.133 0 0 1 116.307 15.226 A 10.909 10.909 0 0 1 118.36 10.92 Q 120.8 7.84 125.48 7.84 Q 130.16 7.84 132.6 10.92 A 11.228 11.228 0 0 1 134.935 16.66 A 14.756 14.756 0 0 1 135.04 18.44 Z M 156.2 13.24 L 156.04 13.24 Q 153.08 11.24 149.62 11.24 A 9.725 9.725 0 0 0 147.373 11.485 A 6.455 6.455 0 0 0 144.2 13.22 A 6.665 6.665 0 0 0 142.351 16.967 A 9.381 9.381 0 0 0 142.24 18.44 A 8.691 8.691 0 0 0 142.539 20.779 A 6.506 6.506 0 0 0 144.2 23.66 A 6.462 6.462 0 0 0 147.396 25.401 A 9.747 9.747 0 0 0 149.62 25.64 Q 153.08 25.64 156.04 23.64 L 156.2 23.64 L 156.2 27.08 Q 152.88 29.04 149.28 29.04 Q 144.84 29.04 141.72 26.16 A 9.54 9.54 0 0 1 138.71 20.186 A 13.459 13.459 0 0 1 138.6 18.44 A 12.132 12.132 0 0 1 139.067 14.99 A 9.291 9.291 0 0 1 141.72 10.72 Q 144.84 7.84 149.28 7.84 A 13.284 13.284 0 0 1 155.68 9.506 A 15.883 15.883 0 0 1 156.2 9.8 L 156.2 13.24 Z M 172.12 8.24 L 172.12 11.36 L 166.32 11.36 L 166.32 23.44 A 4.71 4.71 0 0 0 166.367 24.136 Q 166.495 24.985 166.965 25.356 A 1.238 1.238 0 0 0 167.24 25.52 A 3.628 3.628 0 0 0 167.923 25.726 Q 168.264 25.795 168.664 25.823 A 7.904 7.904 0 0 0 169.2 25.84 Q 170.261 25.84 171.509 25.34 A 9.664 9.664 0 0 0 171.84 25.2 L 172.12 25.2 L 172.12 28.16 Q 170.44 29.04 168.52 29.04 A 9.412 9.412 0 0 1 166.316 28.805 Q 162.68 27.926 162.68 23.76 L 162.68 11.36 L 158.88 11.36 L 158.88 11.12 L 166.32 3.84 L 166.32 8.24 L 172.12 8.24 Z M 107 32.68 L 107 8.24 L 110.64 8.24 L 110.64 32.76 A 7.954 7.954 0 0 1 110.477 34.416 Q 110.187 35.779 109.38 36.74 Q 108.299 38.027 106.144 38.21 A 8.8 8.8 0 0 1 105.4 38.24 A 9.65 9.65 0 0 1 103.979 38.14 Q 103.18 38.021 102.502 37.76 A 5.953 5.953 0 0 1 102.4 37.72 L 102.4 34.72 L 102.72 34.72 Q 103.68 35.04 104.74 35.04 A 4.126 4.126 0 0 0 105.386 34.993 Q 105.73 34.938 106.008 34.821 A 1.932 1.932 0 0 0 106.4 34.6 A 1.147 1.147 0 0 0 106.748 34.162 Q 106.944 33.756 106.987 33.086 A 6.251 6.251 0 0 0 107 32.68 Z M 81.699 15.034 A 13.154 13.154 0 0 0 81.28 18.44 Q 81.28 23.2 84.08 26.12 A 9.097 9.097 0 0 0 88.168 28.594 A 11.855 11.855 0 0 0 91.5 29.04 A 13.145 13.145 0 0 0 93.186 28.935 A 9.425 9.425 0 0 0 98.94 26.12 A 9.657 9.657 0 0 0 101.334 21.862 A 13.053 13.053 0 0 0 101.76 18.44 A 13.936 13.936 0 0 0 101.573 16.108 A 9.875 9.875 0 0 0 98.94 10.76 Q 96.12 7.84 91.5 7.84 A 13.032 13.032 0 0 0 89.698 7.96 A 9.327 9.327 0 0 0 84.08 10.76 A 9.678 9.678 0 0 0 81.699 15.034 Z M 78.28 7.84 L 78.6 7.84 L 78.6 11.32 L 78.28 11.32 A 10.626 10.626 0 0 0 74.168 12.115 A 10.286 10.286 0 0 0 73.88 12.24 A 8.374 8.374 0 0 0 71.912 13.462 A 7.128 7.128 0 0 0 70.68 14.8 L 70.68 28.64 L 67.04 28.64 L 67.04 8.24 L 70.24 8.24 L 70.68 10.8 L 70.68 11.4 L 70.76 11.4 A 9.128 9.128 0 0 1 77.391 7.874 A 11.464 11.464 0 0 1 78.28 7.84 Z M 45.44 14.24 L 45.44 22.64 A 9.944 9.944 0 0 0 47.699 24.526 A 7.782 7.782 0 0 0 51.76 25.64 A 7.571 7.571 0 0 0 53.895 25.353 A 5.848 5.848 0 0 0 56.52 23.76 Q 58.16 22.047 58.306 19.039 A 12.381 12.381 0 0 0 58.32 18.44 A 10.574 10.574 0 0 0 58.126 16.35 Q 57.872 15.09 57.284 14.119 A 5.723 5.723 0 0 0 56.52 13.12 A 6.005 6.005 0 0 0 52.829 11.306 A 8.385 8.385 0 0 0 51.76 11.24 Q 48.16 11.24 45.44 14.24 Z M 86.9 23.9 Q 88.88 25.72 91.52 25.72 Q 94.16 25.72 96.14 23.9 Q 98.12 22.08 98.12 18.42 A 10.732 10.732 0 0 0 97.931 16.338 Q 97.509 14.205 96.14 12.96 Q 94.16 11.16 91.52 11.16 Q 88.88 11.16 86.9 12.96 A 5.65 5.65 0 0 0 85.327 15.485 Q 84.92 16.762 84.92 18.42 A 10.746 10.746 0 0 0 85.111 20.516 Q 85.349 21.714 85.886 22.635 A 5.392 5.392 0 0 0 86.9 23.9 Z M 119.6 16.76 L 131.4 16.76 A 7.861 7.861 0 0 0 131.101 14.955 A 5.133 5.133 0 0 0 129.46 12.4 Q 127.68 10.92 125.48 10.92 Q 123.28 10.92 121.52 12.4 Q 119.8 13.847 119.608 16.631 A 9.783 9.783 0 0 0 119.6 16.76 Z M 4.48 12.72 L 0 12.72 L 0 8.24 L 4.48 8.24 L 4.48 12.72 Z M 25.28 12.72 L 20.8 12.72 L 20.8 8.24 L 25.28 8.24 L 25.28 12.72 Z M 4.48 28.64 L 0 28.64 L 0 24.16 L 4.48 24.16 L 4.48 28.64 Z M 25.28 28.64 L 20.8 28.64 L 20.8 24.16 L 25.28 24.16 L 25.28 28.64 Z M 106.88 3.92 L 106.88 0 L 110.8 0 L 110.8 3.92 L 106.88 3.92 Z" vector-effect="non-scaling-stroke"/></g></svg>