<svg width="128.36" height="25.201" viewBox="0 0 128.36 25.201" xmlns="http://www.w3.org/2000/svg"><g id="svgGroup" stroke-linecap="round" fill-rule="evenodd" font-size="9pt" stroke="#d8bfd8" stroke-width="0.25mm" fill="#d8bfd8" style="stroke:#d8bfd8;stroke-width:0.25mm;fill:#d8bfd8"><path d="M 40.96 23.4 L 40.96 19.92 L 41.16 19.92 Q 44.4 21.84 48.28 21.84 Q 51.36 21.84 52.304 20.473 A 2.53 2.53 0 0 0 52.72 19 A 1.307 1.307 0 0 0 52.328 18.073 Q 52.142 17.878 51.868 17.708 A 3.739 3.739 0 0 0 51.48 17.5 A 11.802 11.802 0 0 0 50.295 17.027 Q 49.676 16.815 48.965 16.636 A 21.209 21.209 0 0 0 48.48 16.52 Q 46.72 16.12 44.96 15.56 Q 43.2 15 41.96 13.68 A 4.527 4.527 0 0 1 40.76 11.03 A 6.127 6.127 0 0 1 40.72 10.32 Q 40.72 7.52 42.74 5.76 A 6.802 6.802 0 0 1 45.474 4.337 Q 46.484 4.063 47.679 4.012 A 13.073 13.073 0 0 1 48.24 4 Q 51.72 4 54.72 5.12 L 54.72 8.44 L 54.44 8.44 A 14.795 14.795 0 0 0 51.463 7.534 A 12.255 12.255 0 0 0 49.2 7.32 Q 46.913 7.32 45.696 7.942 A 3.299 3.299 0 0 0 45.42 8.1 A 3.297 3.297 0 0 0 44.79 8.612 A 2.05 2.05 0 0 0 44.2 10.06 A 1.834 1.834 0 0 0 44.925 11.549 A 3.013 3.013 0 0 0 45.44 11.88 A 9.67 9.67 0 0 0 46.628 12.39 Q 47.251 12.612 47.97 12.788 A 17.084 17.084 0 0 0 48.46 12.9 Q 50.24 13.28 52 13.84 Q 53.76 14.4 55 15.76 Q 56.24 17.12 56.24 19.48 Q 56.24 21.84 54.22 23.52 A 6.411 6.411 0 0 1 52.167 24.638 Q 51.241 24.954 50.108 25.093 A 15.624 15.624 0 0 1 48.22 25.2 A 15.245 15.245 0 0 1 42.86 24.27 A 14.341 14.341 0 0 1 40.96 23.4 Z M 113.08 23.4 L 113.08 19.92 L 113.28 19.92 Q 116.52 21.84 120.4 21.84 Q 123.48 21.84 124.424 20.473 A 2.53 2.53 0 0 0 124.84 19 A 1.307 1.307 0 0 0 124.448 18.073 Q 124.262 17.878 123.988 17.708 A 3.739 3.739 0 0 0 123.6 17.5 A 11.802 11.802 0 0 0 122.415 17.027 Q 121.796 16.815 121.085 16.636 A 21.209 21.209 0 0 0 120.6 16.52 Q 118.84 16.12 117.08 15.56 Q 115.32 15 114.08 13.68 A 4.527 4.527 0 0 1 112.88 11.03 A 6.127 6.127 0 0 1 112.84 10.32 Q 112.84 7.52 114.86 5.76 A 6.802 6.802 0 0 1 117.594 4.337 Q 118.604 4.063 119.799 4.012 A 13.073 13.073 0 0 1 120.36 4 Q 123.84 4 126.84 5.12 L 126.84 8.44 L 126.56 8.44 A 14.795 14.795 0 0 0 123.583 7.534 A 12.255 12.255 0 0 0 121.32 7.32 Q 119.033 7.32 117.816 7.942 A 3.299 3.299 0 0 0 117.54 8.1 A 3.297 3.297 0 0 0 116.91 8.612 A 2.05 2.05 0 0 0 116.32 10.06 A 1.834 1.834 0 0 0 117.045 11.549 A 3.013 3.013 0 0 0 117.56 11.88 A 9.67 9.67 0 0 0 118.748 12.39 Q 119.371 12.612 120.09 12.788 A 17.084 17.084 0 0 0 120.58 12.9 Q 122.36 13.28 124.12 13.84 Q 125.88 14.4 127.12 15.76 Q 128.36 17.12 128.36 19.48 Q 128.36 21.84 126.34 23.52 A 6.411 6.411 0 0 1 124.287 24.638 Q 123.361 24.954 122.228 25.093 A 15.624 15.624 0 0 1 120.34 25.2 A 15.245 15.245 0 0 1 114.98 24.27 A 14.341 14.341 0 0 1 113.08 23.4 Z M 76.72 8.8 L 76.72 5.52 Q 80.2 4 84.18 4 A 10.942 10.942 0 0 1 86.592 4.25 Q 88.272 4.629 89.49 5.586 A 6.548 6.548 0 0 1 90.28 6.32 Q 92.4 8.64 92.4 11.88 L 92.4 24.8 L 89.2 24.8 L 88.76 22.24 L 88.64 22.24 Q 85.76 25.2 81.24 25.2 A 7.485 7.485 0 0 1 78.761 24.803 A 6.552 6.552 0 0 1 76.62 23.56 A 5.376 5.376 0 0 1 74.776 20.021 A 7.644 7.644 0 0 1 74.72 19.08 A 5.411 5.411 0 0 1 76.512 14.937 A 7.009 7.009 0 0 1 77.06 14.48 Q 79.4 12.72 83.92 12.72 L 88.76 12.72 L 88.76 12.4 A 8.453 8.453 0 0 0 88.657 11.032 Q 88.394 9.434 87.46 8.6 A 3.653 3.653 0 0 0 86.342 7.94 Q 85.06 7.44 82.96 7.44 Q 79.76 7.44 76.96 8.8 L 76.72 8.8 Z M 71.76 4.4 L 71.76 7.52 L 65.96 7.52 L 65.96 19.6 A 4.71 4.71 0 0 0 66.007 20.296 Q 66.135 21.145 66.605 21.516 A 1.238 1.238 0 0 0 66.88 21.68 A 3.628 3.628 0 0 0 67.563 21.886 Q 67.904 21.955 68.304 21.983 A 7.904 7.904 0 0 0 68.84 22 Q 69.901 22 71.149 21.5 A 9.664 9.664 0 0 0 71.48 21.36 L 71.76 21.36 L 71.76 24.32 Q 70.08 25.2 68.16 25.2 A 9.412 9.412 0 0 1 65.956 24.965 Q 62.32 24.086 62.32 19.92 L 62.32 7.52 L 58.52 7.52 L 58.52 7.28 L 65.96 0 L 65.96 4.4 L 71.76 4.4 Z M 109.32 4.4 L 109.32 7.52 L 103.52 7.52 L 103.52 19.6 A 4.71 4.71 0 0 0 103.567 20.296 Q 103.695 21.145 104.165 21.516 A 1.238 1.238 0 0 0 104.44 21.68 A 3.628 3.628 0 0 0 105.123 21.886 Q 105.464 21.955 105.864 21.983 A 7.904 7.904 0 0 0 106.4 22 Q 107.461 22 108.709 21.5 A 9.664 9.664 0 0 0 109.04 21.36 L 109.32 21.36 L 109.32 24.32 Q 107.64 25.2 105.72 25.2 A 9.412 9.412 0 0 1 103.516 24.965 Q 99.88 24.086 99.88 19.92 L 99.88 7.52 L 96.08 7.52 L 96.08 7.28 L 103.52 0 L 103.52 4.4 L 109.32 4.4 Z M 88.76 19 L 88.76 15.64 L 84.4 15.64 A 17.18 17.18 0 0 0 82.367 15.749 Q 80.313 15.996 79.312 16.796 A 2.461 2.461 0 0 0 78.36 18.82 Q 78.36 22 82.6 22 A 7.231 7.231 0 0 0 85.998 21.141 L 86 21.14 A 9.826 9.826 0 0 0 88.049 19.723 A 8.774 8.774 0 0 0 88.76 19 Z M 4.48 8.88 L 0 8.88 L 0 4.4 L 4.48 4.4 L 4.48 8.88 Z M 25.28 8.88 L 20.8 8.88 L 20.8 4.4 L 25.28 4.4 L 25.28 8.88 Z M 4.48 24.8 L 0 24.8 L 0 20.32 L 4.48 20.32 L 4.48 24.8 Z M 25.28 24.8 L 20.8 24.8 L 20.8 20.32 L 25.28 20.32 L 25.28 24.8 Z" vector-effect="non-scaling-stroke"/></g></svg>